%TF.GenerationSoftware,KiCad,Pcbnew,6.0.0-unknown-30ec895~86~ubuntu16.04.1*%
%TF.CreationDate,2021-05-25T09:51:37+03:00*%
%TF.ProjectId,npn-to-pnp,6e706e2d-746f-42d7-906e-702e6b696361,rev?*%
%TF.SameCoordinates,Original*%
%TF.FileFunction,Copper,L1,Top*%
%TF.FilePolarity,Positive*%
%FSLAX46Y46*%
G04 Gerber Fmt 4.6, Leading zero omitted, Abs format (unit mm)*
G04 Created by KiCad (PCBNEW 6.0.0-unknown-30ec895~86~ubuntu16.04.1) date 2021-05-25 09:51:37*
%MOMM*%
%LPD*%
G04 APERTURE LIST*
%TA.AperFunction,SMDPad,CuDef*%
%ADD10R,1.300000X1.500000*%
%TD*%
%TA.AperFunction,SMDPad,CuDef*%
%ADD11R,0.900000X0.800000*%
%TD*%
%TA.AperFunction,ComponentPad*%
%ADD12R,2.500000X2.500000*%
%TD*%
%TA.AperFunction,ComponentPad*%
%ADD13C,2.500000*%
%TD*%
%TA.AperFunction,Conductor*%
%ADD14C,0.400000*%
%TD*%
G04 APERTURE END LIST*
D10*
%TO.P,R16,1*%
%TO.N,Net-(Q16-Pad1)*%
X99822000Y-91346000D03*
%TO.P,R16,2*%
%TO.N,Net-(Q12-Pad3)*%
X99822000Y-88646000D03*
%TD*%
%TO.P,R15,1*%
%TO.N,Net-(Q15-Pad1)*%
X99822000Y-86266000D03*
%TO.P,R15,2*%
%TO.N,Net-(Q11-Pad3)*%
X99822000Y-83566000D03*
%TD*%
%TO.P,R14,1*%
%TO.N,Net-(Q14-Pad1)*%
X99822000Y-81280000D03*
%TO.P,R14,2*%
%TO.N,Net-(Q10-Pad3)*%
X99822000Y-78580000D03*
%TD*%
%TO.P,R13,1*%
%TO.N,Net-(Q13-Pad1)*%
X99822000Y-75852000D03*
%TO.P,R13,2*%
%TO.N,Net-(Q9-Pad3)*%
X99822000Y-73152000D03*
%TD*%
%TO.P,R12,1*%
%TO.N,Net-(Q12-Pad1)*%
X105918000Y-91346000D03*
%TO.P,R12,2*%
%TO.N,IN8*%
X105918000Y-88646000D03*
%TD*%
%TO.P,R11,1*%
%TO.N,Net-(Q11-Pad1)*%
X105918000Y-86520000D03*
%TO.P,R11,2*%
%TO.N,IN7*%
X105918000Y-83820000D03*
%TD*%
%TO.P,R10,1*%
%TO.N,Net-(Q10-Pad1)*%
X105918000Y-81186000D03*
%TO.P,R10,2*%
%TO.N,IN6*%
X105918000Y-78486000D03*
%TD*%
%TO.P,R9,1*%
%TO.N,Net-(Q9-Pad1)*%
X105918000Y-76106000D03*
%TO.P,R9,2*%
%TO.N,IN5*%
X105918000Y-73406000D03*
%TD*%
%TO.P,R8,1*%
%TO.N,Net-(Q8-Pad1)*%
X99822000Y-70772000D03*
%TO.P,R8,2*%
%TO.N,Net-(Q4-Pad3)*%
X99822000Y-68072000D03*
%TD*%
%TO.P,R7,1*%
%TO.N,Net-(Q7-Pad1)*%
X99822000Y-65946000D03*
%TO.P,R7,2*%
%TO.N,Net-(Q3-Pad3)*%
X99822000Y-63246000D03*
%TD*%
%TO.P,R6,1*%
%TO.N,Net-(Q6-Pad1)*%
X99822000Y-60866000D03*
%TO.P,R6,2*%
%TO.N,Net-(Q2-Pad3)*%
X99822000Y-58166000D03*
%TD*%
%TO.P,R5,1*%
%TO.N,Net-(Q5-Pad1)*%
X99822000Y-56040000D03*
%TO.P,R5,2*%
%TO.N,Net-(Q1-Pad3)*%
X99822000Y-53340000D03*
%TD*%
%TO.P,R4,1*%
%TO.N,Net-(Q4-Pad1)*%
X105918000Y-71026000D03*
%TO.P,R4,2*%
%TO.N,IN4*%
X105918000Y-68326000D03*
%TD*%
%TO.P,R3,1*%
%TO.N,Net-(Q3-Pad1)*%
X105918000Y-65946000D03*
%TO.P,R3,2*%
%TO.N,IN3*%
X105918000Y-63246000D03*
%TD*%
%TO.P,R2,1*%
%TO.N,Net-(Q2-Pad1)*%
X105918000Y-61120000D03*
%TO.P,R2,2*%
%TO.N,IN2*%
X105918000Y-58420000D03*
%TD*%
%TO.P,R1,1*%
%TO.N,Net-(Q1-Pad1)*%
X105918000Y-56040000D03*
%TO.P,R1,2*%
%TO.N,IN1*%
X105918000Y-53340000D03*
%TD*%
D11*
%TO.P,Q16,1*%
%TO.N,Net-(Q16-Pad1)*%
X97536000Y-90800000D03*
%TO.P,Q16,2*%
%TO.N,+24V*%
X97536000Y-88900000D03*
%TO.P,Q16,3*%
%TO.N,OUT8*%
X95536000Y-89850000D03*
%TD*%
%TO.P,Q15,1*%
%TO.N,Net-(Q15-Pad1)*%
X97536000Y-85786000D03*
%TO.P,Q15,2*%
%TO.N,+24V*%
X97536000Y-83886000D03*
%TO.P,Q15,3*%
%TO.N,OUT7*%
X95536000Y-84836000D03*
%TD*%
%TO.P,Q14,1*%
%TO.N,Net-(Q14-Pad1)*%
X97520000Y-80706000D03*
%TO.P,Q14,2*%
%TO.N,+24V*%
X97520000Y-78806000D03*
%TO.P,Q14,3*%
%TO.N,OUT6*%
X95520000Y-79756000D03*
%TD*%
%TO.P,Q13,1*%
%TO.N,Net-(Q13-Pad1)*%
X97520000Y-75626000D03*
%TO.P,Q13,2*%
%TO.N,+24V*%
X97520000Y-73726000D03*
%TO.P,Q13,3*%
%TO.N,OUT5*%
X95520000Y-74676000D03*
%TD*%
%TO.P,Q12,1*%
%TO.N,Net-(Q12-Pad1)*%
X103870000Y-90866000D03*
%TO.P,Q12,2*%
%TO.N,GND*%
X103870000Y-88966000D03*
%TO.P,Q12,3*%
%TO.N,Net-(Q12-Pad3)*%
X101870000Y-89916000D03*
%TD*%
%TO.P,Q11,1*%
%TO.N,Net-(Q11-Pad1)*%
X103870000Y-85786000D03*
%TO.P,Q11,2*%
%TO.N,GND*%
X103870000Y-83886000D03*
%TO.P,Q11,3*%
%TO.N,Net-(Q11-Pad3)*%
X101870000Y-84836000D03*
%TD*%
%TO.P,Q10,1*%
%TO.N,Net-(Q10-Pad1)*%
X103870000Y-80706000D03*
%TO.P,Q10,2*%
%TO.N,GND*%
X103870000Y-78806000D03*
%TO.P,Q10,3*%
%TO.N,Net-(Q10-Pad3)*%
X101870000Y-79756000D03*
%TD*%
%TO.P,Q9,1*%
%TO.N,Net-(Q9-Pad1)*%
X103870000Y-75626000D03*
%TO.P,Q9,2*%
%TO.N,GND*%
X103870000Y-73726000D03*
%TO.P,Q9,3*%
%TO.N,Net-(Q9-Pad3)*%
X101870000Y-74676000D03*
%TD*%
%TO.P,Q8,1*%
%TO.N,Net-(Q8-Pad1)*%
X97536000Y-70546000D03*
%TO.P,Q8,2*%
%TO.N,+24V*%
X97536000Y-68646000D03*
%TO.P,Q8,3*%
%TO.N,OUT4*%
X95536000Y-69596000D03*
%TD*%
%TO.P,Q7,1*%
%TO.N,Net-(Q7-Pad1)*%
X97520000Y-65466000D03*
%TO.P,Q7,2*%
%TO.N,+24V*%
X97520000Y-63566000D03*
%TO.P,Q7,3*%
%TO.N,OUT3*%
X95520000Y-64516000D03*
%TD*%
%TO.P,Q6,1*%
%TO.N,Net-(Q6-Pad1)*%
X97536000Y-60452000D03*
%TO.P,Q6,2*%
%TO.N,+24V*%
X97536000Y-58552000D03*
%TO.P,Q6,3*%
%TO.N,OUT2*%
X95536000Y-59502000D03*
%TD*%
%TO.P,Q5,1*%
%TO.N,Net-(Q5-Pad1)*%
X97520000Y-55306000D03*
%TO.P,Q5,2*%
%TO.N,+24V*%
X97520000Y-53406000D03*
%TO.P,Q5,3*%
%TO.N,OUT1*%
X95520000Y-54356000D03*
%TD*%
%TO.P,Q4,1*%
%TO.N,Net-(Q4-Pad1)*%
X103870000Y-70546000D03*
%TO.P,Q4,2*%
%TO.N,GND*%
X103870000Y-68646000D03*
%TO.P,Q4,3*%
%TO.N,Net-(Q4-Pad3)*%
X101870000Y-69596000D03*
%TD*%
%TO.P,Q3,1*%
%TO.N,Net-(Q3-Pad1)*%
X103870000Y-65466000D03*
%TO.P,Q3,2*%
%TO.N,GND*%
X103870000Y-63566000D03*
%TO.P,Q3,3*%
%TO.N,Net-(Q3-Pad3)*%
X101870000Y-64516000D03*
%TD*%
%TO.P,Q2,1*%
%TO.N,Net-(Q2-Pad1)*%
X103870000Y-60386000D03*
%TO.P,Q2,2*%
%TO.N,GND*%
X103870000Y-58486000D03*
%TO.P,Q2,3*%
%TO.N,Net-(Q2-Pad3)*%
X101870000Y-59436000D03*
%TD*%
%TO.P,Q1,1*%
%TO.N,Net-(Q1-Pad1)*%
X103870000Y-55814000D03*
%TO.P,Q1,2*%
%TO.N,GND*%
X103870000Y-53914000D03*
%TO.P,Q1,3*%
%TO.N,Net-(Q1-Pad3)*%
X101870000Y-54864000D03*
%TD*%
D12*
%TO.P,J3,1*%
%TO.N,OUT1*%
X89154000Y-54356000D03*
D13*
%TO.P,J3,2*%
%TO.N,OUT2*%
X89154000Y-59436000D03*
%TO.P,J3,3*%
%TO.N,OUT3*%
X89154000Y-64516000D03*
%TO.P,J3,4*%
%TO.N,OUT4*%
X89154000Y-69596000D03*
%TO.P,J3,5*%
%TO.N,OUT5*%
X89154000Y-74676000D03*
%TO.P,J3,6*%
%TO.N,OUT6*%
X89154000Y-79756000D03*
%TO.P,J3,7*%
%TO.N,OUT7*%
X89154000Y-84836000D03*
%TO.P,J3,8*%
%TO.N,OUT8*%
X89154000Y-89916000D03*
%TD*%
D12*
%TO.P,J2,1*%
%TO.N,IN8*%
X112522000Y-89916000D03*
D13*
%TO.P,J2,2*%
%TO.N,IN7*%
X112522000Y-84836000D03*
%TO.P,J2,3*%
%TO.N,IN6*%
X112522000Y-79756000D03*
%TO.P,J2,4*%
%TO.N,IN5*%
X112522000Y-74676000D03*
%TO.P,J2,5*%
%TO.N,IN4*%
X112522000Y-69596000D03*
%TO.P,J2,6*%
%TO.N,IN3*%
X112522000Y-64516000D03*
%TO.P,J2,7*%
%TO.N,IN2*%
X112522000Y-59436000D03*
%TO.P,J2,8*%
%TO.N,IN1*%
X112522000Y-54356000D03*
%TD*%
D12*
%TO.P,J1,1*%
%TO.N,GND*%
X103124000Y-45974000D03*
D13*
%TO.P,J1,2*%
%TO.N,+24V*%
X98044000Y-45974000D03*
%TD*%
D14*
%TO.N,Net-(Q16-Pad1)*%
X97536000Y-90800000D02*
X99276000Y-90800000D01*
X99276000Y-90800000D02*
X99822000Y-91346000D01*
%TO.N,Net-(Q15-Pad1)*%
X97536000Y-85786000D02*
X99342000Y-85786000D01*
X99342000Y-85786000D02*
X99822000Y-86266000D01*
%TO.N,Net-(Q14-Pad1)*%
X97520000Y-80706000D02*
X99248000Y-80706000D01*
X99248000Y-80706000D02*
X99822000Y-81280000D01*
%TO.N,Net-(Q13-Pad1)*%
X97520000Y-75626000D02*
X99596000Y-75626000D01*
X99596000Y-75626000D02*
X99822000Y-75852000D01*
%TO.N,Net-(Q12-Pad3)*%
X100330000Y-88646000D02*
X101600000Y-89916000D01*
X101600000Y-89916000D02*
X101870000Y-89916000D01*
X99822000Y-88646000D02*
X100330000Y-88646000D01*
%TO.N,Net-(Q12-Pad1)*%
X103870000Y-90866000D02*
X105438000Y-90866000D01*
X105438000Y-90866000D02*
X105918000Y-91346000D01*
%TO.N,Net-(Q11-Pad3)*%
X99822000Y-83566000D02*
X100600000Y-83566000D01*
X100600000Y-83566000D02*
X101870000Y-84836000D01*
%TO.N,Net-(Q11-Pad1)*%
X103870000Y-85786000D02*
X105184000Y-85786000D01*
X105184000Y-85786000D02*
X105918000Y-86520000D01*
%TO.N,Net-(Q10-Pad3)*%
X99822000Y-78580000D02*
X100694000Y-78580000D01*
X100694000Y-78580000D02*
X101870000Y-79756000D01*
%TO.N,Net-(Q10-Pad1)*%
X103870000Y-80706000D02*
X105438000Y-80706000D01*
X105438000Y-80706000D02*
X105918000Y-81186000D01*
%TO.N,Net-(Q9-Pad3)*%
X99822000Y-73152000D02*
X100346000Y-73152000D01*
X100346000Y-73152000D02*
X101870000Y-74676000D01*
%TO.N,Net-(Q9-Pad1)*%
X103870000Y-75626000D02*
X105438000Y-75626000D01*
X105438000Y-75626000D02*
X105918000Y-76106000D01*
%TO.N,Net-(Q8-Pad1)*%
X97536000Y-70546000D02*
X99596000Y-70546000D01*
X99596000Y-70546000D02*
X99822000Y-70772000D01*
%TO.N,Net-(Q7-Pad1)*%
X97520000Y-65466000D02*
X99342000Y-65466000D01*
X99342000Y-65466000D02*
X99822000Y-65946000D01*
%TO.N,Net-(Q6-Pad1)*%
X97536000Y-60452000D02*
X99408000Y-60452000D01*
X99408000Y-60452000D02*
X99822000Y-60866000D01*
%TO.N,Net-(Q5-Pad1)*%
X97520000Y-55306000D02*
X99088000Y-55306000D01*
X99088000Y-55306000D02*
X99822000Y-56040000D01*
%TO.N,Net-(Q4-Pad3)*%
X99822000Y-68072000D02*
X100346000Y-68072000D01*
X100346000Y-68072000D02*
X101870000Y-69596000D01*
%TO.N,Net-(Q4-Pad1)*%
X103870000Y-70546000D02*
X105438000Y-70546000D01*
X105438000Y-70546000D02*
X105918000Y-71026000D01*
%TO.N,Net-(Q3-Pad3)*%
X99822000Y-63246000D02*
X100600000Y-63246000D01*
X100600000Y-63246000D02*
X101870000Y-64516000D01*
%TO.N,Net-(Q3-Pad1)*%
X103870000Y-65466000D02*
X105438000Y-65466000D01*
X105438000Y-65466000D02*
X105918000Y-65946000D01*
%TO.N,Net-(Q2-Pad3)*%
X99822000Y-58166000D02*
X100600000Y-58166000D01*
X100600000Y-58166000D02*
X101870000Y-59436000D01*
%TO.N,Net-(Q2-Pad1)*%
X105918000Y-61120000D02*
X104604000Y-61120000D01*
X104604000Y-61120000D02*
X103870000Y-60386000D01*
%TO.N,Net-(Q1-Pad3)*%
X99822000Y-53340000D02*
X100346000Y-53340000D01*
X100346000Y-53340000D02*
X101870000Y-54864000D01*
%TO.N,Net-(Q1-Pad1)*%
X105918000Y-56040000D02*
X104096000Y-56040000D01*
X104096000Y-56040000D02*
X103870000Y-55814000D01*
%TO.N,OUT8*%
X89154000Y-89916000D02*
X95470000Y-89916000D01*
X95470000Y-89916000D02*
X95536000Y-89850000D01*
%TO.N,OUT7*%
X89154000Y-84836000D02*
X95536000Y-84836000D01*
%TO.N,OUT6*%
X89154000Y-79756000D02*
X95520000Y-79756000D01*
%TO.N,OUT5*%
X95520000Y-74676000D02*
X89154000Y-74676000D01*
%TO.N,OUT4*%
X95536000Y-69596000D02*
X89154000Y-69596000D01*
%TO.N,OUT3*%
X89154000Y-64516000D02*
X95520000Y-64516000D01*
%TO.N,OUT2*%
X95536000Y-59502000D02*
X89220000Y-59502000D01*
X89220000Y-59502000D02*
X89154000Y-59436000D01*
%TO.N,OUT1*%
X95520000Y-54356000D02*
X89154000Y-54356000D01*
%TO.N,IN1*%
X105918000Y-53340000D02*
X111506000Y-53340000D01*
X111506000Y-53340000D02*
X112522000Y-54356000D01*
%TO.N,IN2*%
X105918000Y-58420000D02*
X111506000Y-58420000D01*
X111506000Y-58420000D02*
X112522000Y-59436000D01*
%TO.N,IN3*%
X105918000Y-63246000D02*
X111252000Y-63246000D01*
X111252000Y-63246000D02*
X112522000Y-64516000D01*
%TO.N,IN4*%
X105918000Y-68326000D02*
X111252000Y-68326000D01*
X111252000Y-68326000D02*
X112522000Y-69596000D01*
%TO.N,IN5*%
X105918000Y-73406000D02*
X111252000Y-73406000D01*
X111252000Y-73406000D02*
X112522000Y-74676000D01*
%TO.N,IN6*%
X105918000Y-78486000D02*
X111252000Y-78486000D01*
X111252000Y-78486000D02*
X112522000Y-79756000D01*
%TO.N,IN7*%
X105918000Y-83820000D02*
X111506000Y-83820000D01*
X111506000Y-83820000D02*
X112522000Y-84836000D01*
%TO.N,IN8*%
X105918000Y-88646000D02*
X111252000Y-88646000D01*
X111252000Y-88646000D02*
X112522000Y-89916000D01*
%TO.N,+24V*%
X97520000Y-53406000D02*
X97520000Y-46498000D01*
X97520000Y-46498000D02*
X98044000Y-45974000D01*
X97536000Y-58552000D02*
X96669999Y-57685999D01*
X96669999Y-57685999D02*
X96669999Y-54256001D01*
X96669999Y-54256001D02*
X97520000Y-53406000D01*
X97520000Y-63566000D02*
X96685999Y-62731999D01*
X96685999Y-62731999D02*
X96685999Y-59402001D01*
X96685999Y-59402001D02*
X97536000Y-58552000D01*
X97536000Y-68646000D02*
X96669999Y-67779999D01*
X96669999Y-67779999D02*
X96669999Y-64416001D01*
X96669999Y-64416001D02*
X97520000Y-63566000D01*
X97520000Y-73726000D02*
X96685999Y-72891999D01*
X96685999Y-72891999D02*
X96685999Y-69496001D01*
X96685999Y-69496001D02*
X97536000Y-68646000D01*
X97520000Y-78806000D02*
X96370001Y-77656001D01*
X96370001Y-77656001D02*
X96370001Y-74875999D01*
X96370001Y-74875999D02*
X97520000Y-73726000D01*
X97536000Y-83886000D02*
X96669999Y-83019999D01*
X96669999Y-83019999D02*
X96669999Y-79656001D01*
X96669999Y-79656001D02*
X97520000Y-78806000D01*
X97536000Y-88900000D02*
X96685999Y-88049999D01*
X96685999Y-88049999D02*
X96685999Y-84736001D01*
X96685999Y-84736001D02*
X97536000Y-83886000D01*
%TO.N,GND*%
X103870000Y-53914000D02*
X103870000Y-46720000D01*
X103870000Y-46720000D02*
X103124000Y-45974000D01*
X103870000Y-58486000D02*
X103019999Y-57635999D01*
X103019999Y-57635999D02*
X103019999Y-54764001D01*
X103019999Y-54764001D02*
X103870000Y-53914000D01*
X103870000Y-63566000D02*
X103019999Y-62715999D01*
X103019999Y-59336001D02*
X103870000Y-58486000D01*
X103019999Y-62715999D02*
X103019999Y-59336001D01*
X103870000Y-68646000D02*
X103019999Y-67795999D01*
X103019999Y-67795999D02*
X103019999Y-64416001D01*
X103019999Y-64416001D02*
X103870000Y-63566000D01*
X103870000Y-73726000D02*
X102720001Y-72576001D01*
X102720001Y-72576001D02*
X102720001Y-69795999D01*
X102720001Y-69795999D02*
X103870000Y-68646000D01*
X103870000Y-78806000D02*
X103019999Y-77955999D01*
X103019999Y-77955999D02*
X103019999Y-74576001D01*
X103019999Y-74576001D02*
X103870000Y-73726000D01*
X103870000Y-83886000D02*
X103019999Y-83035999D01*
X103019999Y-83035999D02*
X103019999Y-79656001D01*
X103019999Y-79656001D02*
X103870000Y-78806000D01*
X103870000Y-88966000D02*
X103019999Y-88115999D01*
X103019999Y-88115999D02*
X103019999Y-84736001D01*
X103019999Y-84736001D02*
X103870000Y-83886000D01*
%TD*%
M02*
