%TF.GenerationSoftware,KiCad,Pcbnew,6.0.0-unknown-30ec895~86~ubuntu16.04.1*%
%TF.CreationDate,2021-05-25T09:51:37+03:00*%
%TF.ProjectId,npn-to-pnp,6e706e2d-746f-42d7-906e-702e6b696361,rev?*%
%TF.SameCoordinates,Original*%
%TF.FileFunction,Legend,Top*%
%TF.FilePolarity,Positive*%
%FSLAX46Y46*%
G04 Gerber Fmt 4.6, Leading zero omitted, Abs format (unit mm)*
G04 Created by KiCad (PCBNEW 6.0.0-unknown-30ec895~86~ubuntu16.04.1) date 2021-05-25 09:51:37*
%MOMM*%
%LPD*%
G04 APERTURE LIST*
%ADD10C,0.120000*%
%ADD11C,0.150000*%
G04 APERTURE END LIST*
D10*
%TO.C,R16*%
X100702000Y-89396000D02*
X100702000Y-90596000D01*
X98942000Y-90596000D02*
X98942000Y-89396000D01*
%TO.C,R15*%
X100702000Y-84316000D02*
X100702000Y-85516000D01*
X98942000Y-85516000D02*
X98942000Y-84316000D01*
%TO.C,R14*%
X100702000Y-79330000D02*
X100702000Y-80530000D01*
X98942000Y-80530000D02*
X98942000Y-79330000D01*
%TO.C,R13*%
X100702000Y-73902000D02*
X100702000Y-75102000D01*
X98942000Y-75102000D02*
X98942000Y-73902000D01*
%TO.C,R12*%
X106798000Y-89396000D02*
X106798000Y-90596000D01*
X105038000Y-90596000D02*
X105038000Y-89396000D01*
%TO.C,R11*%
X106798000Y-84570000D02*
X106798000Y-85770000D01*
X105038000Y-85770000D02*
X105038000Y-84570000D01*
%TO.C,R10*%
X106798000Y-79236000D02*
X106798000Y-80436000D01*
X105038000Y-80436000D02*
X105038000Y-79236000D01*
%TO.C,R9*%
X106798000Y-74156000D02*
X106798000Y-75356000D01*
X105038000Y-75356000D02*
X105038000Y-74156000D01*
%TO.C,R8*%
X100702000Y-68822000D02*
X100702000Y-70022000D01*
X98942000Y-70022000D02*
X98942000Y-68822000D01*
%TO.C,R7*%
X100702000Y-63996000D02*
X100702000Y-65196000D01*
X98942000Y-65196000D02*
X98942000Y-63996000D01*
%TO.C,R6*%
X100702000Y-58916000D02*
X100702000Y-60116000D01*
X98942000Y-60116000D02*
X98942000Y-58916000D01*
%TO.C,R5*%
X100702000Y-54090000D02*
X100702000Y-55290000D01*
X98942000Y-55290000D02*
X98942000Y-54090000D01*
%TO.C,R4*%
X106798000Y-69076000D02*
X106798000Y-70276000D01*
X105038000Y-70276000D02*
X105038000Y-69076000D01*
%TO.C,R3*%
X106798000Y-63996000D02*
X106798000Y-65196000D01*
X105038000Y-65196000D02*
X105038000Y-63996000D01*
%TO.C,R2*%
X106798000Y-59170000D02*
X106798000Y-60370000D01*
X105038000Y-60370000D02*
X105038000Y-59170000D01*
%TO.C,R1*%
X106798000Y-54090000D02*
X106798000Y-55290000D01*
X105038000Y-55290000D02*
X105038000Y-54090000D01*
%TO.C,Q16*%
X95776000Y-88270000D02*
X95776000Y-89200000D01*
X95776000Y-91430000D02*
X95776000Y-90500000D01*
X95776000Y-91430000D02*
X97936000Y-91430000D01*
X95776000Y-88270000D02*
X97236000Y-88270000D01*
%TO.C,Q15*%
X95776000Y-83256000D02*
X95776000Y-84186000D01*
X95776000Y-86416000D02*
X95776000Y-85486000D01*
X95776000Y-86416000D02*
X97936000Y-86416000D01*
X95776000Y-83256000D02*
X97236000Y-83256000D01*
%TO.C,Q14*%
X95760000Y-78176000D02*
X95760000Y-79106000D01*
X95760000Y-81336000D02*
X95760000Y-80406000D01*
X95760000Y-81336000D02*
X97920000Y-81336000D01*
X95760000Y-78176000D02*
X97220000Y-78176000D01*
%TO.C,Q13*%
X95760000Y-73096000D02*
X95760000Y-74026000D01*
X95760000Y-76256000D02*
X95760000Y-75326000D01*
X95760000Y-76256000D02*
X97920000Y-76256000D01*
X95760000Y-73096000D02*
X97220000Y-73096000D01*
%TO.C,Q12*%
X102110000Y-88336000D02*
X102110000Y-89266000D01*
X102110000Y-91496000D02*
X102110000Y-90566000D01*
X102110000Y-91496000D02*
X104270000Y-91496000D01*
X102110000Y-88336000D02*
X103570000Y-88336000D01*
%TO.C,Q11*%
X102110000Y-83256000D02*
X102110000Y-84186000D01*
X102110000Y-86416000D02*
X102110000Y-85486000D01*
X102110000Y-86416000D02*
X104270000Y-86416000D01*
X102110000Y-83256000D02*
X103570000Y-83256000D01*
%TO.C,Q10*%
X102110000Y-78176000D02*
X102110000Y-79106000D01*
X102110000Y-81336000D02*
X102110000Y-80406000D01*
X102110000Y-81336000D02*
X104270000Y-81336000D01*
X102110000Y-78176000D02*
X103570000Y-78176000D01*
%TO.C,Q9*%
X102110000Y-73096000D02*
X102110000Y-74026000D01*
X102110000Y-76256000D02*
X102110000Y-75326000D01*
X102110000Y-76256000D02*
X104270000Y-76256000D01*
X102110000Y-73096000D02*
X103570000Y-73096000D01*
%TO.C,Q8*%
X95776000Y-68016000D02*
X95776000Y-68946000D01*
X95776000Y-71176000D02*
X95776000Y-70246000D01*
X95776000Y-71176000D02*
X97936000Y-71176000D01*
X95776000Y-68016000D02*
X97236000Y-68016000D01*
%TO.C,Q7*%
X95760000Y-62936000D02*
X95760000Y-63866000D01*
X95760000Y-66096000D02*
X95760000Y-65166000D01*
X95760000Y-66096000D02*
X97920000Y-66096000D01*
X95760000Y-62936000D02*
X97220000Y-62936000D01*
%TO.C,Q6*%
X95776000Y-57922000D02*
X95776000Y-58852000D01*
X95776000Y-61082000D02*
X95776000Y-60152000D01*
X95776000Y-61082000D02*
X97936000Y-61082000D01*
X95776000Y-57922000D02*
X97236000Y-57922000D01*
%TO.C,Q5*%
X95760000Y-52776000D02*
X95760000Y-53706000D01*
X95760000Y-55936000D02*
X95760000Y-55006000D01*
X95760000Y-55936000D02*
X97920000Y-55936000D01*
X95760000Y-52776000D02*
X97220000Y-52776000D01*
%TO.C,Q4*%
X102110000Y-68016000D02*
X102110000Y-68946000D01*
X102110000Y-71176000D02*
X102110000Y-70246000D01*
X102110000Y-71176000D02*
X104270000Y-71176000D01*
X102110000Y-68016000D02*
X103570000Y-68016000D01*
%TO.C,Q3*%
X102110000Y-62936000D02*
X102110000Y-63866000D01*
X102110000Y-66096000D02*
X102110000Y-65166000D01*
X102110000Y-66096000D02*
X104270000Y-66096000D01*
X102110000Y-62936000D02*
X103570000Y-62936000D01*
%TO.C,Q2*%
X102110000Y-57856000D02*
X102110000Y-58786000D01*
X102110000Y-61016000D02*
X102110000Y-60086000D01*
X102110000Y-61016000D02*
X104270000Y-61016000D01*
X102110000Y-57856000D02*
X103570000Y-57856000D01*
%TO.C,Q1*%
X102110000Y-53284000D02*
X102110000Y-54214000D01*
X102110000Y-56444000D02*
X102110000Y-55514000D01*
X102110000Y-56444000D02*
X104270000Y-56444000D01*
X102110000Y-53284000D02*
X103570000Y-53284000D01*
%TO.C,J3*%
X90834000Y-59436000D02*
G75*
G03X90834000Y-59436000I-1680000J0D01*
G01*
X90834000Y-64516000D02*
G75*
G03X90834000Y-64516000I-1680000J0D01*
G01*
X90834000Y-69596000D02*
G75*
G03X90834000Y-69596000I-1680000J0D01*
G01*
X90834000Y-74676000D02*
G75*
G03X90834000Y-74676000I-1680000J0D01*
G01*
X90834000Y-79756000D02*
G75*
G03X90834000Y-79756000I-1680000J0D01*
G01*
X90834000Y-84836000D02*
G75*
G03X90834000Y-84836000I-1680000J0D01*
G01*
X90834000Y-89916000D02*
G75*
G03X90834000Y-89916000I-1680000J0D01*
G01*
X85604000Y-51756000D02*
X85604000Y-92516000D01*
X86704000Y-51756000D02*
X86704000Y-92516000D01*
X91704000Y-51756000D02*
X91704000Y-92516000D01*
X93614000Y-51756000D02*
X85044000Y-51756000D01*
X85044000Y-51756000D02*
X85044000Y-92516000D01*
X85044000Y-92516000D02*
X93614000Y-92516000D01*
X93614000Y-92516000D02*
X93614000Y-51756000D01*
X93554000Y-53106000D02*
X93554000Y-55606000D01*
X92554000Y-53106000D02*
X92554000Y-55606000D01*
X93554000Y-53106000D02*
X92554000Y-53106000D01*
X93554000Y-55606000D02*
X92554000Y-55606000D01*
X90223000Y-60711000D02*
X90130000Y-60617000D01*
X87938000Y-58426000D02*
X87880000Y-58367000D01*
X90429000Y-60506000D02*
X90370000Y-60447000D01*
X88178000Y-58256000D02*
X88085000Y-58162000D01*
X93554000Y-58186000D02*
X93554000Y-60686000D01*
X92554000Y-58186000D02*
X92554000Y-60686000D01*
X93554000Y-58186000D02*
X92554000Y-58186000D01*
X93554000Y-60686000D02*
X92554000Y-60686000D01*
X90223000Y-65791000D02*
X90130000Y-65697000D01*
X87938000Y-63506000D02*
X87880000Y-63447000D01*
X90429000Y-65586000D02*
X90370000Y-65527000D01*
X88178000Y-63336000D02*
X88085000Y-63242000D01*
X93554000Y-63266000D02*
X93554000Y-65766000D01*
X92554000Y-63266000D02*
X92554000Y-65766000D01*
X93554000Y-63266000D02*
X92554000Y-63266000D01*
X93554000Y-65766000D02*
X92554000Y-65766000D01*
X90223000Y-70871000D02*
X90130000Y-70777000D01*
X87938000Y-68586000D02*
X87880000Y-68527000D01*
X90429000Y-70666000D02*
X90370000Y-70607000D01*
X88178000Y-68416000D02*
X88085000Y-68322000D01*
X93554000Y-68346000D02*
X93554000Y-70846000D01*
X92554000Y-68346000D02*
X92554000Y-70846000D01*
X93554000Y-68346000D02*
X92554000Y-68346000D01*
X93554000Y-70846000D02*
X92554000Y-70846000D01*
X90223000Y-75951000D02*
X90130000Y-75857000D01*
X87938000Y-73666000D02*
X87880000Y-73607000D01*
X90429000Y-75746000D02*
X90370000Y-75687000D01*
X88178000Y-73496000D02*
X88085000Y-73402000D01*
X93554000Y-73426000D02*
X93554000Y-75926000D01*
X92554000Y-73426000D02*
X92554000Y-75926000D01*
X93554000Y-73426000D02*
X92554000Y-73426000D01*
X93554000Y-75926000D02*
X92554000Y-75926000D01*
X90223000Y-81031000D02*
X90130000Y-80937000D01*
X87938000Y-78746000D02*
X87880000Y-78687000D01*
X90429000Y-80826000D02*
X90370000Y-80767000D01*
X88178000Y-78576000D02*
X88085000Y-78482000D01*
X93554000Y-78506000D02*
X93554000Y-81006000D01*
X92554000Y-78506000D02*
X92554000Y-81006000D01*
X93554000Y-78506000D02*
X92554000Y-78506000D01*
X93554000Y-81006000D02*
X92554000Y-81006000D01*
X90223000Y-86111000D02*
X90130000Y-86017000D01*
X87938000Y-83826000D02*
X87880000Y-83767000D01*
X90429000Y-85906000D02*
X90370000Y-85847000D01*
X88178000Y-83656000D02*
X88085000Y-83562000D01*
X93554000Y-83586000D02*
X93554000Y-86086000D01*
X92554000Y-83586000D02*
X92554000Y-86086000D01*
X93554000Y-83586000D02*
X92554000Y-83586000D01*
X93554000Y-86086000D02*
X92554000Y-86086000D01*
X90223000Y-91191000D02*
X90130000Y-91097000D01*
X87938000Y-88906000D02*
X87880000Y-88847000D01*
X90429000Y-90986000D02*
X90370000Y-90927000D01*
X88178000Y-88736000D02*
X88085000Y-88642000D01*
X93554000Y-88666000D02*
X93554000Y-91166000D01*
X92554000Y-88666000D02*
X92554000Y-91166000D01*
X93554000Y-88666000D02*
X92554000Y-88666000D01*
X93554000Y-91166000D02*
X92554000Y-91166000D01*
X85544000Y-51516000D02*
X84804000Y-51516000D01*
X84804000Y-51516000D02*
X84804000Y-52016000D01*
X87473550Y-54385383D02*
G75*
G02X87670000Y-53567000I1680450J29383D01*
G01*
X88364912Y-52872047D02*
G75*
G02X89943000Y-52872000I789088J-1483953D01*
G01*
X90637953Y-53566912D02*
G75*
G02X90638000Y-55145000I-1483953J-789088D01*
G01*
X89943088Y-55839953D02*
G75*
G02X88365000Y-55840000I-789088J1483953D01*
G01*
X87670648Y-55144712D02*
G75*
G02X87474000Y-54356000I1483352J788712D01*
G01*
%TO.C,J2*%
X114202000Y-84836000D02*
G75*
G03X114202000Y-84836000I-1680000J0D01*
G01*
X114202000Y-79756000D02*
G75*
G03X114202000Y-79756000I-1680000J0D01*
G01*
X114202000Y-74676000D02*
G75*
G03X114202000Y-74676000I-1680000J0D01*
G01*
X114202000Y-69596000D02*
G75*
G03X114202000Y-69596000I-1680000J0D01*
G01*
X114202000Y-64516000D02*
G75*
G03X114202000Y-64516000I-1680000J0D01*
G01*
X114202000Y-59436000D02*
G75*
G03X114202000Y-59436000I-1680000J0D01*
G01*
X114202000Y-54356000D02*
G75*
G03X114202000Y-54356000I-1680000J0D01*
G01*
X116072000Y-92516000D02*
X116072000Y-51756000D01*
X114972000Y-92516000D02*
X114972000Y-51756000D01*
X109972000Y-92516000D02*
X109972000Y-51756000D01*
X108062000Y-92516000D02*
X116632000Y-92516000D01*
X116632000Y-92516000D02*
X116632000Y-51756000D01*
X116632000Y-51756000D02*
X108062000Y-51756000D01*
X108062000Y-51756000D02*
X108062000Y-92516000D01*
X108122000Y-91166000D02*
X108122000Y-88666000D01*
X109122000Y-91166000D02*
X109122000Y-88666000D01*
X108122000Y-91166000D02*
X109122000Y-91166000D01*
X108122000Y-88666000D02*
X109122000Y-88666000D01*
X111453000Y-83561000D02*
X111546000Y-83655000D01*
X113738000Y-85846000D02*
X113796000Y-85905000D01*
X111247000Y-83766000D02*
X111306000Y-83825000D01*
X113498000Y-86016000D02*
X113591000Y-86110000D01*
X108122000Y-86086000D02*
X108122000Y-83586000D01*
X109122000Y-86086000D02*
X109122000Y-83586000D01*
X108122000Y-86086000D02*
X109122000Y-86086000D01*
X108122000Y-83586000D02*
X109122000Y-83586000D01*
X111453000Y-78481000D02*
X111546000Y-78575000D01*
X113738000Y-80766000D02*
X113796000Y-80825000D01*
X111247000Y-78686000D02*
X111306000Y-78745000D01*
X113498000Y-80936000D02*
X113591000Y-81030000D01*
X108122000Y-81006000D02*
X108122000Y-78506000D01*
X109122000Y-81006000D02*
X109122000Y-78506000D01*
X108122000Y-81006000D02*
X109122000Y-81006000D01*
X108122000Y-78506000D02*
X109122000Y-78506000D01*
X111453000Y-73401000D02*
X111546000Y-73495000D01*
X113738000Y-75686000D02*
X113796000Y-75745000D01*
X111247000Y-73606000D02*
X111306000Y-73665000D01*
X113498000Y-75856000D02*
X113591000Y-75950000D01*
X108122000Y-75926000D02*
X108122000Y-73426000D01*
X109122000Y-75926000D02*
X109122000Y-73426000D01*
X108122000Y-75926000D02*
X109122000Y-75926000D01*
X108122000Y-73426000D02*
X109122000Y-73426000D01*
X111453000Y-68321000D02*
X111546000Y-68415000D01*
X113738000Y-70606000D02*
X113796000Y-70665000D01*
X111247000Y-68526000D02*
X111306000Y-68585000D01*
X113498000Y-70776000D02*
X113591000Y-70870000D01*
X108122000Y-70846000D02*
X108122000Y-68346000D01*
X109122000Y-70846000D02*
X109122000Y-68346000D01*
X108122000Y-70846000D02*
X109122000Y-70846000D01*
X108122000Y-68346000D02*
X109122000Y-68346000D01*
X111453000Y-63241000D02*
X111546000Y-63335000D01*
X113738000Y-65526000D02*
X113796000Y-65585000D01*
X111247000Y-63446000D02*
X111306000Y-63505000D01*
X113498000Y-65696000D02*
X113591000Y-65790000D01*
X108122000Y-65766000D02*
X108122000Y-63266000D01*
X109122000Y-65766000D02*
X109122000Y-63266000D01*
X108122000Y-65766000D02*
X109122000Y-65766000D01*
X108122000Y-63266000D02*
X109122000Y-63266000D01*
X111453000Y-58161000D02*
X111546000Y-58255000D01*
X113738000Y-60446000D02*
X113796000Y-60505000D01*
X111247000Y-58366000D02*
X111306000Y-58425000D01*
X113498000Y-60616000D02*
X113591000Y-60710000D01*
X108122000Y-60686000D02*
X108122000Y-58186000D01*
X109122000Y-60686000D02*
X109122000Y-58186000D01*
X108122000Y-60686000D02*
X109122000Y-60686000D01*
X108122000Y-58186000D02*
X109122000Y-58186000D01*
X111453000Y-53081000D02*
X111546000Y-53175000D01*
X113738000Y-55366000D02*
X113796000Y-55425000D01*
X111247000Y-53286000D02*
X111306000Y-53345000D01*
X113498000Y-55536000D02*
X113591000Y-55630000D01*
X108122000Y-55606000D02*
X108122000Y-53106000D01*
X109122000Y-55606000D02*
X109122000Y-53106000D01*
X108122000Y-55606000D02*
X109122000Y-55606000D01*
X108122000Y-53106000D02*
X109122000Y-53106000D01*
X116132000Y-92756000D02*
X116872000Y-92756000D01*
X116872000Y-92756000D02*
X116872000Y-92256000D01*
X114202450Y-89886617D02*
G75*
G02X114006000Y-90705000I-1680450J-29383D01*
G01*
X113311088Y-91399953D02*
G75*
G02X111733000Y-91400000I-789088J1483953D01*
G01*
X111038047Y-90705088D02*
G75*
G02X111038000Y-89127000I1483953J789088D01*
G01*
X111732912Y-88432047D02*
G75*
G02X113311000Y-88432000I789088J-1483953D01*
G01*
X114005352Y-89127288D02*
G75*
G02X114202000Y-89916000I-1483352J-788712D01*
G01*
%TO.C,J1*%
X99724000Y-45974000D02*
G75*
G03X99724000Y-45974000I-1680000J0D01*
G01*
X105724000Y-42424000D02*
X95444000Y-42424000D01*
X105724000Y-43524000D02*
X95444000Y-43524000D01*
X105724000Y-48524000D02*
X95444000Y-48524000D01*
X105724000Y-50434000D02*
X105724000Y-41864000D01*
X105724000Y-41864000D02*
X95444000Y-41864000D01*
X95444000Y-41864000D02*
X95444000Y-50434000D01*
X95444000Y-50434000D02*
X105724000Y-50434000D01*
X104374000Y-50374000D02*
X101874000Y-50374000D01*
X104374000Y-49374000D02*
X101874000Y-49374000D01*
X104374000Y-50374000D02*
X104374000Y-49374000D01*
X101874000Y-50374000D02*
X101874000Y-49374000D01*
X96769000Y-47043000D02*
X96863000Y-46950000D01*
X99054000Y-44758000D02*
X99113000Y-44700000D01*
X96974000Y-47249000D02*
X97033000Y-47190000D01*
X99224000Y-44998000D02*
X99318000Y-44905000D01*
X99294000Y-50374000D02*
X96794000Y-50374000D01*
X99294000Y-49374000D02*
X96794000Y-49374000D01*
X99294000Y-50374000D02*
X99294000Y-49374000D01*
X96794000Y-50374000D02*
X96794000Y-49374000D01*
X105964000Y-42364000D02*
X105964000Y-41624000D01*
X105964000Y-41624000D02*
X105464000Y-41624000D01*
X103094617Y-44293550D02*
G75*
G02X103913000Y-44490000I29383J-1680450D01*
G01*
X104607953Y-45184912D02*
G75*
G02X104608000Y-46763000I-1483953J-789088D01*
G01*
X103913088Y-47457953D02*
G75*
G02X102335000Y-47458000I-789088J1483953D01*
G01*
X101640047Y-46763088D02*
G75*
G02X101640000Y-45185000I1483953J789088D01*
G01*
X102335288Y-44490648D02*
G75*
G02X103124000Y-44294000I788712J-1483352D01*
G01*
%TO.C,R16*%
D11*
X98574380Y-90638857D02*
X98098190Y-90972190D01*
X98574380Y-91210285D02*
X97574380Y-91210285D01*
X97574380Y-90829333D01*
X97622000Y-90734095D01*
X97669619Y-90686476D01*
X97764857Y-90638857D01*
X97907714Y-90638857D01*
X98002952Y-90686476D01*
X98050571Y-90734095D01*
X98098190Y-90829333D01*
X98098190Y-91210285D01*
X98574380Y-89686476D02*
X98574380Y-90257904D01*
X98574380Y-89972190D02*
X97574380Y-89972190D01*
X97717238Y-90067428D01*
X97812476Y-90162666D01*
X97860095Y-90257904D01*
X97574380Y-88829333D02*
X97574380Y-89019809D01*
X97622000Y-89115047D01*
X97669619Y-89162666D01*
X97812476Y-89257904D01*
X98002952Y-89305523D01*
X98383904Y-89305523D01*
X98479142Y-89257904D01*
X98526761Y-89210285D01*
X98574380Y-89115047D01*
X98574380Y-88924571D01*
X98526761Y-88829333D01*
X98479142Y-88781714D01*
X98383904Y-88734095D01*
X98145809Y-88734095D01*
X98050571Y-88781714D01*
X98002952Y-88829333D01*
X97955333Y-88924571D01*
X97955333Y-89115047D01*
X98002952Y-89210285D01*
X98050571Y-89257904D01*
X98145809Y-89305523D01*
%TO.C,R15*%
X98574380Y-85558857D02*
X98098190Y-85892190D01*
X98574380Y-86130285D02*
X97574380Y-86130285D01*
X97574380Y-85749333D01*
X97622000Y-85654095D01*
X97669619Y-85606476D01*
X97764857Y-85558857D01*
X97907714Y-85558857D01*
X98002952Y-85606476D01*
X98050571Y-85654095D01*
X98098190Y-85749333D01*
X98098190Y-86130285D01*
X98574380Y-84606476D02*
X98574380Y-85177904D01*
X98574380Y-84892190D02*
X97574380Y-84892190D01*
X97717238Y-84987428D01*
X97812476Y-85082666D01*
X97860095Y-85177904D01*
X97574380Y-83701714D02*
X97574380Y-84177904D01*
X98050571Y-84225523D01*
X98002952Y-84177904D01*
X97955333Y-84082666D01*
X97955333Y-83844571D01*
X98002952Y-83749333D01*
X98050571Y-83701714D01*
X98145809Y-83654095D01*
X98383904Y-83654095D01*
X98479142Y-83701714D01*
X98526761Y-83749333D01*
X98574380Y-83844571D01*
X98574380Y-84082666D01*
X98526761Y-84177904D01*
X98479142Y-84225523D01*
%TO.C,R14*%
X98574380Y-80572857D02*
X98098190Y-80906190D01*
X98574380Y-81144285D02*
X97574380Y-81144285D01*
X97574380Y-80763333D01*
X97622000Y-80668095D01*
X97669619Y-80620476D01*
X97764857Y-80572857D01*
X97907714Y-80572857D01*
X98002952Y-80620476D01*
X98050571Y-80668095D01*
X98098190Y-80763333D01*
X98098190Y-81144285D01*
X98574380Y-79620476D02*
X98574380Y-80191904D01*
X98574380Y-79906190D02*
X97574380Y-79906190D01*
X97717238Y-80001428D01*
X97812476Y-80096666D01*
X97860095Y-80191904D01*
X97907714Y-78763333D02*
X98574380Y-78763333D01*
X97526761Y-79001428D02*
X98241047Y-79239523D01*
X98241047Y-78620476D01*
%TO.C,R13*%
X98574380Y-75144857D02*
X98098190Y-75478190D01*
X98574380Y-75716285D02*
X97574380Y-75716285D01*
X97574380Y-75335333D01*
X97622000Y-75240095D01*
X97669619Y-75192476D01*
X97764857Y-75144857D01*
X97907714Y-75144857D01*
X98002952Y-75192476D01*
X98050571Y-75240095D01*
X98098190Y-75335333D01*
X98098190Y-75716285D01*
X98574380Y-74192476D02*
X98574380Y-74763904D01*
X98574380Y-74478190D02*
X97574380Y-74478190D01*
X97717238Y-74573428D01*
X97812476Y-74668666D01*
X97860095Y-74763904D01*
X97574380Y-73859142D02*
X97574380Y-73240095D01*
X97955333Y-73573428D01*
X97955333Y-73430571D01*
X98002952Y-73335333D01*
X98050571Y-73287714D01*
X98145809Y-73240095D01*
X98383904Y-73240095D01*
X98479142Y-73287714D01*
X98526761Y-73335333D01*
X98574380Y-73430571D01*
X98574380Y-73716285D01*
X98526761Y-73811523D01*
X98479142Y-73859142D01*
%TO.C,R12*%
X104670380Y-90638857D02*
X104194190Y-90972190D01*
X104670380Y-91210285D02*
X103670380Y-91210285D01*
X103670380Y-90829333D01*
X103718000Y-90734095D01*
X103765619Y-90686476D01*
X103860857Y-90638857D01*
X104003714Y-90638857D01*
X104098952Y-90686476D01*
X104146571Y-90734095D01*
X104194190Y-90829333D01*
X104194190Y-91210285D01*
X104670380Y-89686476D02*
X104670380Y-90257904D01*
X104670380Y-89972190D02*
X103670380Y-89972190D01*
X103813238Y-90067428D01*
X103908476Y-90162666D01*
X103956095Y-90257904D01*
X103765619Y-89305523D02*
X103718000Y-89257904D01*
X103670380Y-89162666D01*
X103670380Y-88924571D01*
X103718000Y-88829333D01*
X103765619Y-88781714D01*
X103860857Y-88734095D01*
X103956095Y-88734095D01*
X104098952Y-88781714D01*
X104670380Y-89353142D01*
X104670380Y-88734095D01*
%TO.C,R11*%
X104670380Y-85812857D02*
X104194190Y-86146190D01*
X104670380Y-86384285D02*
X103670380Y-86384285D01*
X103670380Y-86003333D01*
X103718000Y-85908095D01*
X103765619Y-85860476D01*
X103860857Y-85812857D01*
X104003714Y-85812857D01*
X104098952Y-85860476D01*
X104146571Y-85908095D01*
X104194190Y-86003333D01*
X104194190Y-86384285D01*
X104670380Y-84860476D02*
X104670380Y-85431904D01*
X104670380Y-85146190D02*
X103670380Y-85146190D01*
X103813238Y-85241428D01*
X103908476Y-85336666D01*
X103956095Y-85431904D01*
X104670380Y-83908095D02*
X104670380Y-84479523D01*
X104670380Y-84193809D02*
X103670380Y-84193809D01*
X103813238Y-84289047D01*
X103908476Y-84384285D01*
X103956095Y-84479523D01*
%TO.C,R10*%
X104670380Y-80478857D02*
X104194190Y-80812190D01*
X104670380Y-81050285D02*
X103670380Y-81050285D01*
X103670380Y-80669333D01*
X103718000Y-80574095D01*
X103765619Y-80526476D01*
X103860857Y-80478857D01*
X104003714Y-80478857D01*
X104098952Y-80526476D01*
X104146571Y-80574095D01*
X104194190Y-80669333D01*
X104194190Y-81050285D01*
X104670380Y-79526476D02*
X104670380Y-80097904D01*
X104670380Y-79812190D02*
X103670380Y-79812190D01*
X103813238Y-79907428D01*
X103908476Y-80002666D01*
X103956095Y-80097904D01*
X103670380Y-78907428D02*
X103670380Y-78812190D01*
X103718000Y-78716952D01*
X103765619Y-78669333D01*
X103860857Y-78621714D01*
X104051333Y-78574095D01*
X104289428Y-78574095D01*
X104479904Y-78621714D01*
X104575142Y-78669333D01*
X104622761Y-78716952D01*
X104670380Y-78812190D01*
X104670380Y-78907428D01*
X104622761Y-79002666D01*
X104575142Y-79050285D01*
X104479904Y-79097904D01*
X104289428Y-79145523D01*
X104051333Y-79145523D01*
X103860857Y-79097904D01*
X103765619Y-79050285D01*
X103718000Y-79002666D01*
X103670380Y-78907428D01*
%TO.C,R9*%
X104670380Y-74922666D02*
X104194190Y-75256000D01*
X104670380Y-75494095D02*
X103670380Y-75494095D01*
X103670380Y-75113142D01*
X103718000Y-75017904D01*
X103765619Y-74970285D01*
X103860857Y-74922666D01*
X104003714Y-74922666D01*
X104098952Y-74970285D01*
X104146571Y-75017904D01*
X104194190Y-75113142D01*
X104194190Y-75494095D01*
X104670380Y-74446476D02*
X104670380Y-74256000D01*
X104622761Y-74160761D01*
X104575142Y-74113142D01*
X104432285Y-74017904D01*
X104241809Y-73970285D01*
X103860857Y-73970285D01*
X103765619Y-74017904D01*
X103718000Y-74065523D01*
X103670380Y-74160761D01*
X103670380Y-74351238D01*
X103718000Y-74446476D01*
X103765619Y-74494095D01*
X103860857Y-74541714D01*
X104098952Y-74541714D01*
X104194190Y-74494095D01*
X104241809Y-74446476D01*
X104289428Y-74351238D01*
X104289428Y-74160761D01*
X104241809Y-74065523D01*
X104194190Y-74017904D01*
X104098952Y-73970285D01*
%TO.C,R8*%
X98574380Y-69588666D02*
X98098190Y-69922000D01*
X98574380Y-70160095D02*
X97574380Y-70160095D01*
X97574380Y-69779142D01*
X97622000Y-69683904D01*
X97669619Y-69636285D01*
X97764857Y-69588666D01*
X97907714Y-69588666D01*
X98002952Y-69636285D01*
X98050571Y-69683904D01*
X98098190Y-69779142D01*
X98098190Y-70160095D01*
X98002952Y-69017238D02*
X97955333Y-69112476D01*
X97907714Y-69160095D01*
X97812476Y-69207714D01*
X97764857Y-69207714D01*
X97669619Y-69160095D01*
X97622000Y-69112476D01*
X97574380Y-69017238D01*
X97574380Y-68826761D01*
X97622000Y-68731523D01*
X97669619Y-68683904D01*
X97764857Y-68636285D01*
X97812476Y-68636285D01*
X97907714Y-68683904D01*
X97955333Y-68731523D01*
X98002952Y-68826761D01*
X98002952Y-69017238D01*
X98050571Y-69112476D01*
X98098190Y-69160095D01*
X98193428Y-69207714D01*
X98383904Y-69207714D01*
X98479142Y-69160095D01*
X98526761Y-69112476D01*
X98574380Y-69017238D01*
X98574380Y-68826761D01*
X98526761Y-68731523D01*
X98479142Y-68683904D01*
X98383904Y-68636285D01*
X98193428Y-68636285D01*
X98098190Y-68683904D01*
X98050571Y-68731523D01*
X98002952Y-68826761D01*
%TO.C,R7*%
X98574380Y-64762666D02*
X98098190Y-65096000D01*
X98574380Y-65334095D02*
X97574380Y-65334095D01*
X97574380Y-64953142D01*
X97622000Y-64857904D01*
X97669619Y-64810285D01*
X97764857Y-64762666D01*
X97907714Y-64762666D01*
X98002952Y-64810285D01*
X98050571Y-64857904D01*
X98098190Y-64953142D01*
X98098190Y-65334095D01*
X97574380Y-64429333D02*
X97574380Y-63762666D01*
X98574380Y-64191238D01*
%TO.C,R6*%
X98574380Y-59682666D02*
X98098190Y-60016000D01*
X98574380Y-60254095D02*
X97574380Y-60254095D01*
X97574380Y-59873142D01*
X97622000Y-59777904D01*
X97669619Y-59730285D01*
X97764857Y-59682666D01*
X97907714Y-59682666D01*
X98002952Y-59730285D01*
X98050571Y-59777904D01*
X98098190Y-59873142D01*
X98098190Y-60254095D01*
X97574380Y-58825523D02*
X97574380Y-59016000D01*
X97622000Y-59111238D01*
X97669619Y-59158857D01*
X97812476Y-59254095D01*
X98002952Y-59301714D01*
X98383904Y-59301714D01*
X98479142Y-59254095D01*
X98526761Y-59206476D01*
X98574380Y-59111238D01*
X98574380Y-58920761D01*
X98526761Y-58825523D01*
X98479142Y-58777904D01*
X98383904Y-58730285D01*
X98145809Y-58730285D01*
X98050571Y-58777904D01*
X98002952Y-58825523D01*
X97955333Y-58920761D01*
X97955333Y-59111238D01*
X98002952Y-59206476D01*
X98050571Y-59254095D01*
X98145809Y-59301714D01*
%TO.C,R5*%
X98574380Y-54856666D02*
X98098190Y-55190000D01*
X98574380Y-55428095D02*
X97574380Y-55428095D01*
X97574380Y-55047142D01*
X97622000Y-54951904D01*
X97669619Y-54904285D01*
X97764857Y-54856666D01*
X97907714Y-54856666D01*
X98002952Y-54904285D01*
X98050571Y-54951904D01*
X98098190Y-55047142D01*
X98098190Y-55428095D01*
X97574380Y-53951904D02*
X97574380Y-54428095D01*
X98050571Y-54475714D01*
X98002952Y-54428095D01*
X97955333Y-54332857D01*
X97955333Y-54094761D01*
X98002952Y-53999523D01*
X98050571Y-53951904D01*
X98145809Y-53904285D01*
X98383904Y-53904285D01*
X98479142Y-53951904D01*
X98526761Y-53999523D01*
X98574380Y-54094761D01*
X98574380Y-54332857D01*
X98526761Y-54428095D01*
X98479142Y-54475714D01*
%TO.C,R4*%
X104670380Y-69842666D02*
X104194190Y-70176000D01*
X104670380Y-70414095D02*
X103670380Y-70414095D01*
X103670380Y-70033142D01*
X103718000Y-69937904D01*
X103765619Y-69890285D01*
X103860857Y-69842666D01*
X104003714Y-69842666D01*
X104098952Y-69890285D01*
X104146571Y-69937904D01*
X104194190Y-70033142D01*
X104194190Y-70414095D01*
X104003714Y-68985523D02*
X104670380Y-68985523D01*
X103622761Y-69223619D02*
X104337047Y-69461714D01*
X104337047Y-68842666D01*
%TO.C,R3*%
X104670380Y-64762666D02*
X104194190Y-65096000D01*
X104670380Y-65334095D02*
X103670380Y-65334095D01*
X103670380Y-64953142D01*
X103718000Y-64857904D01*
X103765619Y-64810285D01*
X103860857Y-64762666D01*
X104003714Y-64762666D01*
X104098952Y-64810285D01*
X104146571Y-64857904D01*
X104194190Y-64953142D01*
X104194190Y-65334095D01*
X103670380Y-64429333D02*
X103670380Y-63810285D01*
X104051333Y-64143619D01*
X104051333Y-64000761D01*
X104098952Y-63905523D01*
X104146571Y-63857904D01*
X104241809Y-63810285D01*
X104479904Y-63810285D01*
X104575142Y-63857904D01*
X104622761Y-63905523D01*
X104670380Y-64000761D01*
X104670380Y-64286476D01*
X104622761Y-64381714D01*
X104575142Y-64429333D01*
%TO.C,R2*%
X104670380Y-59936666D02*
X104194190Y-60270000D01*
X104670380Y-60508095D02*
X103670380Y-60508095D01*
X103670380Y-60127142D01*
X103718000Y-60031904D01*
X103765619Y-59984285D01*
X103860857Y-59936666D01*
X104003714Y-59936666D01*
X104098952Y-59984285D01*
X104146571Y-60031904D01*
X104194190Y-60127142D01*
X104194190Y-60508095D01*
X103765619Y-59555714D02*
X103718000Y-59508095D01*
X103670380Y-59412857D01*
X103670380Y-59174761D01*
X103718000Y-59079523D01*
X103765619Y-59031904D01*
X103860857Y-58984285D01*
X103956095Y-58984285D01*
X104098952Y-59031904D01*
X104670380Y-59603333D01*
X104670380Y-58984285D01*
%TO.C,R1*%
X104670380Y-54856666D02*
X104194190Y-55190000D01*
X104670380Y-55428095D02*
X103670380Y-55428095D01*
X103670380Y-55047142D01*
X103718000Y-54951904D01*
X103765619Y-54904285D01*
X103860857Y-54856666D01*
X104003714Y-54856666D01*
X104098952Y-54904285D01*
X104146571Y-54951904D01*
X104194190Y-55047142D01*
X104194190Y-55428095D01*
X104670380Y-53904285D02*
X104670380Y-54475714D01*
X104670380Y-54190000D02*
X103670380Y-54190000D01*
X103813238Y-54285238D01*
X103908476Y-54380476D01*
X103956095Y-54475714D01*
%TO.C,Q16*%
X95964571Y-92897619D02*
X95869333Y-92850000D01*
X95774095Y-92754761D01*
X95631238Y-92611904D01*
X95536000Y-92564285D01*
X95440761Y-92564285D01*
X95488380Y-92802380D02*
X95393142Y-92754761D01*
X95297904Y-92659523D01*
X95250285Y-92469047D01*
X95250285Y-92135714D01*
X95297904Y-91945238D01*
X95393142Y-91850000D01*
X95488380Y-91802380D01*
X95678857Y-91802380D01*
X95774095Y-91850000D01*
X95869333Y-91945238D01*
X95916952Y-92135714D01*
X95916952Y-92469047D01*
X95869333Y-92659523D01*
X95774095Y-92754761D01*
X95678857Y-92802380D01*
X95488380Y-92802380D01*
X96869333Y-92802380D02*
X96297904Y-92802380D01*
X96583619Y-92802380D02*
X96583619Y-91802380D01*
X96488380Y-91945238D01*
X96393142Y-92040476D01*
X96297904Y-92088095D01*
X97726476Y-91802380D02*
X97536000Y-91802380D01*
X97440761Y-91850000D01*
X97393142Y-91897619D01*
X97297904Y-92040476D01*
X97250285Y-92230952D01*
X97250285Y-92611904D01*
X97297904Y-92707142D01*
X97345523Y-92754761D01*
X97440761Y-92802380D01*
X97631238Y-92802380D01*
X97726476Y-92754761D01*
X97774095Y-92707142D01*
X97821714Y-92611904D01*
X97821714Y-92373809D01*
X97774095Y-92278571D01*
X97726476Y-92230952D01*
X97631238Y-92183333D01*
X97440761Y-92183333D01*
X97345523Y-92230952D01*
X97297904Y-92278571D01*
X97250285Y-92373809D01*
%TO.C,Q15*%
X95964571Y-87883619D02*
X95869333Y-87836000D01*
X95774095Y-87740761D01*
X95631238Y-87597904D01*
X95536000Y-87550285D01*
X95440761Y-87550285D01*
X95488380Y-87788380D02*
X95393142Y-87740761D01*
X95297904Y-87645523D01*
X95250285Y-87455047D01*
X95250285Y-87121714D01*
X95297904Y-86931238D01*
X95393142Y-86836000D01*
X95488380Y-86788380D01*
X95678857Y-86788380D01*
X95774095Y-86836000D01*
X95869333Y-86931238D01*
X95916952Y-87121714D01*
X95916952Y-87455047D01*
X95869333Y-87645523D01*
X95774095Y-87740761D01*
X95678857Y-87788380D01*
X95488380Y-87788380D01*
X96869333Y-87788380D02*
X96297904Y-87788380D01*
X96583619Y-87788380D02*
X96583619Y-86788380D01*
X96488380Y-86931238D01*
X96393142Y-87026476D01*
X96297904Y-87074095D01*
X97774095Y-86788380D02*
X97297904Y-86788380D01*
X97250285Y-87264571D01*
X97297904Y-87216952D01*
X97393142Y-87169333D01*
X97631238Y-87169333D01*
X97726476Y-87216952D01*
X97774095Y-87264571D01*
X97821714Y-87359809D01*
X97821714Y-87597904D01*
X97774095Y-87693142D01*
X97726476Y-87740761D01*
X97631238Y-87788380D01*
X97393142Y-87788380D01*
X97297904Y-87740761D01*
X97250285Y-87693142D01*
%TO.C,Q14*%
X95948571Y-82803619D02*
X95853333Y-82756000D01*
X95758095Y-82660761D01*
X95615238Y-82517904D01*
X95520000Y-82470285D01*
X95424761Y-82470285D01*
X95472380Y-82708380D02*
X95377142Y-82660761D01*
X95281904Y-82565523D01*
X95234285Y-82375047D01*
X95234285Y-82041714D01*
X95281904Y-81851238D01*
X95377142Y-81756000D01*
X95472380Y-81708380D01*
X95662857Y-81708380D01*
X95758095Y-81756000D01*
X95853333Y-81851238D01*
X95900952Y-82041714D01*
X95900952Y-82375047D01*
X95853333Y-82565523D01*
X95758095Y-82660761D01*
X95662857Y-82708380D01*
X95472380Y-82708380D01*
X96853333Y-82708380D02*
X96281904Y-82708380D01*
X96567619Y-82708380D02*
X96567619Y-81708380D01*
X96472380Y-81851238D01*
X96377142Y-81946476D01*
X96281904Y-81994095D01*
X97710476Y-82041714D02*
X97710476Y-82708380D01*
X97472380Y-81660761D02*
X97234285Y-82375047D01*
X97853333Y-82375047D01*
%TO.C,Q13*%
X95948571Y-77723619D02*
X95853333Y-77676000D01*
X95758095Y-77580761D01*
X95615238Y-77437904D01*
X95520000Y-77390285D01*
X95424761Y-77390285D01*
X95472380Y-77628380D02*
X95377142Y-77580761D01*
X95281904Y-77485523D01*
X95234285Y-77295047D01*
X95234285Y-76961714D01*
X95281904Y-76771238D01*
X95377142Y-76676000D01*
X95472380Y-76628380D01*
X95662857Y-76628380D01*
X95758095Y-76676000D01*
X95853333Y-76771238D01*
X95900952Y-76961714D01*
X95900952Y-77295047D01*
X95853333Y-77485523D01*
X95758095Y-77580761D01*
X95662857Y-77628380D01*
X95472380Y-77628380D01*
X96853333Y-77628380D02*
X96281904Y-77628380D01*
X96567619Y-77628380D02*
X96567619Y-76628380D01*
X96472380Y-76771238D01*
X96377142Y-76866476D01*
X96281904Y-76914095D01*
X97186666Y-76628380D02*
X97805714Y-76628380D01*
X97472380Y-77009333D01*
X97615238Y-77009333D01*
X97710476Y-77056952D01*
X97758095Y-77104571D01*
X97805714Y-77199809D01*
X97805714Y-77437904D01*
X97758095Y-77533142D01*
X97710476Y-77580761D01*
X97615238Y-77628380D01*
X97329523Y-77628380D01*
X97234285Y-77580761D01*
X97186666Y-77533142D01*
%TO.C,Q12*%
X102298571Y-92963619D02*
X102203333Y-92916000D01*
X102108095Y-92820761D01*
X101965238Y-92677904D01*
X101870000Y-92630285D01*
X101774761Y-92630285D01*
X101822380Y-92868380D02*
X101727142Y-92820761D01*
X101631904Y-92725523D01*
X101584285Y-92535047D01*
X101584285Y-92201714D01*
X101631904Y-92011238D01*
X101727142Y-91916000D01*
X101822380Y-91868380D01*
X102012857Y-91868380D01*
X102108095Y-91916000D01*
X102203333Y-92011238D01*
X102250952Y-92201714D01*
X102250952Y-92535047D01*
X102203333Y-92725523D01*
X102108095Y-92820761D01*
X102012857Y-92868380D01*
X101822380Y-92868380D01*
X103203333Y-92868380D02*
X102631904Y-92868380D01*
X102917619Y-92868380D02*
X102917619Y-91868380D01*
X102822380Y-92011238D01*
X102727142Y-92106476D01*
X102631904Y-92154095D01*
X103584285Y-91963619D02*
X103631904Y-91916000D01*
X103727142Y-91868380D01*
X103965238Y-91868380D01*
X104060476Y-91916000D01*
X104108095Y-91963619D01*
X104155714Y-92058857D01*
X104155714Y-92154095D01*
X104108095Y-92296952D01*
X103536666Y-92868380D01*
X104155714Y-92868380D01*
%TO.C,Q11*%
X102298571Y-87883619D02*
X102203333Y-87836000D01*
X102108095Y-87740761D01*
X101965238Y-87597904D01*
X101870000Y-87550285D01*
X101774761Y-87550285D01*
X101822380Y-87788380D02*
X101727142Y-87740761D01*
X101631904Y-87645523D01*
X101584285Y-87455047D01*
X101584285Y-87121714D01*
X101631904Y-86931238D01*
X101727142Y-86836000D01*
X101822380Y-86788380D01*
X102012857Y-86788380D01*
X102108095Y-86836000D01*
X102203333Y-86931238D01*
X102250952Y-87121714D01*
X102250952Y-87455047D01*
X102203333Y-87645523D01*
X102108095Y-87740761D01*
X102012857Y-87788380D01*
X101822380Y-87788380D01*
X103203333Y-87788380D02*
X102631904Y-87788380D01*
X102917619Y-87788380D02*
X102917619Y-86788380D01*
X102822380Y-86931238D01*
X102727142Y-87026476D01*
X102631904Y-87074095D01*
X104155714Y-87788380D02*
X103584285Y-87788380D01*
X103870000Y-87788380D02*
X103870000Y-86788380D01*
X103774761Y-86931238D01*
X103679523Y-87026476D01*
X103584285Y-87074095D01*
%TO.C,Q10*%
X102298571Y-82803619D02*
X102203333Y-82756000D01*
X102108095Y-82660761D01*
X101965238Y-82517904D01*
X101870000Y-82470285D01*
X101774761Y-82470285D01*
X101822380Y-82708380D02*
X101727142Y-82660761D01*
X101631904Y-82565523D01*
X101584285Y-82375047D01*
X101584285Y-82041714D01*
X101631904Y-81851238D01*
X101727142Y-81756000D01*
X101822380Y-81708380D01*
X102012857Y-81708380D01*
X102108095Y-81756000D01*
X102203333Y-81851238D01*
X102250952Y-82041714D01*
X102250952Y-82375047D01*
X102203333Y-82565523D01*
X102108095Y-82660761D01*
X102012857Y-82708380D01*
X101822380Y-82708380D01*
X103203333Y-82708380D02*
X102631904Y-82708380D01*
X102917619Y-82708380D02*
X102917619Y-81708380D01*
X102822380Y-81851238D01*
X102727142Y-81946476D01*
X102631904Y-81994095D01*
X103822380Y-81708380D02*
X103917619Y-81708380D01*
X104012857Y-81756000D01*
X104060476Y-81803619D01*
X104108095Y-81898857D01*
X104155714Y-82089333D01*
X104155714Y-82327428D01*
X104108095Y-82517904D01*
X104060476Y-82613142D01*
X104012857Y-82660761D01*
X103917619Y-82708380D01*
X103822380Y-82708380D01*
X103727142Y-82660761D01*
X103679523Y-82613142D01*
X103631904Y-82517904D01*
X103584285Y-82327428D01*
X103584285Y-82089333D01*
X103631904Y-81898857D01*
X103679523Y-81803619D01*
X103727142Y-81756000D01*
X103822380Y-81708380D01*
%TO.C,Q9*%
X102774761Y-77723619D02*
X102679523Y-77676000D01*
X102584285Y-77580761D01*
X102441428Y-77437904D01*
X102346190Y-77390285D01*
X102250952Y-77390285D01*
X102298571Y-77628380D02*
X102203333Y-77580761D01*
X102108095Y-77485523D01*
X102060476Y-77295047D01*
X102060476Y-76961714D01*
X102108095Y-76771238D01*
X102203333Y-76676000D01*
X102298571Y-76628380D01*
X102489047Y-76628380D01*
X102584285Y-76676000D01*
X102679523Y-76771238D01*
X102727142Y-76961714D01*
X102727142Y-77295047D01*
X102679523Y-77485523D01*
X102584285Y-77580761D01*
X102489047Y-77628380D01*
X102298571Y-77628380D01*
X103203333Y-77628380D02*
X103393809Y-77628380D01*
X103489047Y-77580761D01*
X103536666Y-77533142D01*
X103631904Y-77390285D01*
X103679523Y-77199809D01*
X103679523Y-76818857D01*
X103631904Y-76723619D01*
X103584285Y-76676000D01*
X103489047Y-76628380D01*
X103298571Y-76628380D01*
X103203333Y-76676000D01*
X103155714Y-76723619D01*
X103108095Y-76818857D01*
X103108095Y-77056952D01*
X103155714Y-77152190D01*
X103203333Y-77199809D01*
X103298571Y-77247428D01*
X103489047Y-77247428D01*
X103584285Y-77199809D01*
X103631904Y-77152190D01*
X103679523Y-77056952D01*
%TO.C,Q8*%
X96440761Y-72643619D02*
X96345523Y-72596000D01*
X96250285Y-72500761D01*
X96107428Y-72357904D01*
X96012190Y-72310285D01*
X95916952Y-72310285D01*
X95964571Y-72548380D02*
X95869333Y-72500761D01*
X95774095Y-72405523D01*
X95726476Y-72215047D01*
X95726476Y-71881714D01*
X95774095Y-71691238D01*
X95869333Y-71596000D01*
X95964571Y-71548380D01*
X96155047Y-71548380D01*
X96250285Y-71596000D01*
X96345523Y-71691238D01*
X96393142Y-71881714D01*
X96393142Y-72215047D01*
X96345523Y-72405523D01*
X96250285Y-72500761D01*
X96155047Y-72548380D01*
X95964571Y-72548380D01*
X96964571Y-71976952D02*
X96869333Y-71929333D01*
X96821714Y-71881714D01*
X96774095Y-71786476D01*
X96774095Y-71738857D01*
X96821714Y-71643619D01*
X96869333Y-71596000D01*
X96964571Y-71548380D01*
X97155047Y-71548380D01*
X97250285Y-71596000D01*
X97297904Y-71643619D01*
X97345523Y-71738857D01*
X97345523Y-71786476D01*
X97297904Y-71881714D01*
X97250285Y-71929333D01*
X97155047Y-71976952D01*
X96964571Y-71976952D01*
X96869333Y-72024571D01*
X96821714Y-72072190D01*
X96774095Y-72167428D01*
X96774095Y-72357904D01*
X96821714Y-72453142D01*
X96869333Y-72500761D01*
X96964571Y-72548380D01*
X97155047Y-72548380D01*
X97250285Y-72500761D01*
X97297904Y-72453142D01*
X97345523Y-72357904D01*
X97345523Y-72167428D01*
X97297904Y-72072190D01*
X97250285Y-72024571D01*
X97155047Y-71976952D01*
%TO.C,Q7*%
X96424761Y-67563619D02*
X96329523Y-67516000D01*
X96234285Y-67420761D01*
X96091428Y-67277904D01*
X95996190Y-67230285D01*
X95900952Y-67230285D01*
X95948571Y-67468380D02*
X95853333Y-67420761D01*
X95758095Y-67325523D01*
X95710476Y-67135047D01*
X95710476Y-66801714D01*
X95758095Y-66611238D01*
X95853333Y-66516000D01*
X95948571Y-66468380D01*
X96139047Y-66468380D01*
X96234285Y-66516000D01*
X96329523Y-66611238D01*
X96377142Y-66801714D01*
X96377142Y-67135047D01*
X96329523Y-67325523D01*
X96234285Y-67420761D01*
X96139047Y-67468380D01*
X95948571Y-67468380D01*
X96710476Y-66468380D02*
X97377142Y-66468380D01*
X96948571Y-67468380D01*
%TO.C,Q6*%
X96440761Y-62549619D02*
X96345523Y-62502000D01*
X96250285Y-62406761D01*
X96107428Y-62263904D01*
X96012190Y-62216285D01*
X95916952Y-62216285D01*
X95964571Y-62454380D02*
X95869333Y-62406761D01*
X95774095Y-62311523D01*
X95726476Y-62121047D01*
X95726476Y-61787714D01*
X95774095Y-61597238D01*
X95869333Y-61502000D01*
X95964571Y-61454380D01*
X96155047Y-61454380D01*
X96250285Y-61502000D01*
X96345523Y-61597238D01*
X96393142Y-61787714D01*
X96393142Y-62121047D01*
X96345523Y-62311523D01*
X96250285Y-62406761D01*
X96155047Y-62454380D01*
X95964571Y-62454380D01*
X97250285Y-61454380D02*
X97059809Y-61454380D01*
X96964571Y-61502000D01*
X96916952Y-61549619D01*
X96821714Y-61692476D01*
X96774095Y-61882952D01*
X96774095Y-62263904D01*
X96821714Y-62359142D01*
X96869333Y-62406761D01*
X96964571Y-62454380D01*
X97155047Y-62454380D01*
X97250285Y-62406761D01*
X97297904Y-62359142D01*
X97345523Y-62263904D01*
X97345523Y-62025809D01*
X97297904Y-61930571D01*
X97250285Y-61882952D01*
X97155047Y-61835333D01*
X96964571Y-61835333D01*
X96869333Y-61882952D01*
X96821714Y-61930571D01*
X96774095Y-62025809D01*
%TO.C,Q5*%
X96424761Y-57403619D02*
X96329523Y-57356000D01*
X96234285Y-57260761D01*
X96091428Y-57117904D01*
X95996190Y-57070285D01*
X95900952Y-57070285D01*
X95948571Y-57308380D02*
X95853333Y-57260761D01*
X95758095Y-57165523D01*
X95710476Y-56975047D01*
X95710476Y-56641714D01*
X95758095Y-56451238D01*
X95853333Y-56356000D01*
X95948571Y-56308380D01*
X96139047Y-56308380D01*
X96234285Y-56356000D01*
X96329523Y-56451238D01*
X96377142Y-56641714D01*
X96377142Y-56975047D01*
X96329523Y-57165523D01*
X96234285Y-57260761D01*
X96139047Y-57308380D01*
X95948571Y-57308380D01*
X97281904Y-56308380D02*
X96805714Y-56308380D01*
X96758095Y-56784571D01*
X96805714Y-56736952D01*
X96900952Y-56689333D01*
X97139047Y-56689333D01*
X97234285Y-56736952D01*
X97281904Y-56784571D01*
X97329523Y-56879809D01*
X97329523Y-57117904D01*
X97281904Y-57213142D01*
X97234285Y-57260761D01*
X97139047Y-57308380D01*
X96900952Y-57308380D01*
X96805714Y-57260761D01*
X96758095Y-57213142D01*
%TO.C,Q4*%
X102774761Y-72643619D02*
X102679523Y-72596000D01*
X102584285Y-72500761D01*
X102441428Y-72357904D01*
X102346190Y-72310285D01*
X102250952Y-72310285D01*
X102298571Y-72548380D02*
X102203333Y-72500761D01*
X102108095Y-72405523D01*
X102060476Y-72215047D01*
X102060476Y-71881714D01*
X102108095Y-71691238D01*
X102203333Y-71596000D01*
X102298571Y-71548380D01*
X102489047Y-71548380D01*
X102584285Y-71596000D01*
X102679523Y-71691238D01*
X102727142Y-71881714D01*
X102727142Y-72215047D01*
X102679523Y-72405523D01*
X102584285Y-72500761D01*
X102489047Y-72548380D01*
X102298571Y-72548380D01*
X103584285Y-71881714D02*
X103584285Y-72548380D01*
X103346190Y-71500761D02*
X103108095Y-72215047D01*
X103727142Y-72215047D01*
%TO.C,Q3*%
X102774761Y-67563619D02*
X102679523Y-67516000D01*
X102584285Y-67420761D01*
X102441428Y-67277904D01*
X102346190Y-67230285D01*
X102250952Y-67230285D01*
X102298571Y-67468380D02*
X102203333Y-67420761D01*
X102108095Y-67325523D01*
X102060476Y-67135047D01*
X102060476Y-66801714D01*
X102108095Y-66611238D01*
X102203333Y-66516000D01*
X102298571Y-66468380D01*
X102489047Y-66468380D01*
X102584285Y-66516000D01*
X102679523Y-66611238D01*
X102727142Y-66801714D01*
X102727142Y-67135047D01*
X102679523Y-67325523D01*
X102584285Y-67420761D01*
X102489047Y-67468380D01*
X102298571Y-67468380D01*
X103060476Y-66468380D02*
X103679523Y-66468380D01*
X103346190Y-66849333D01*
X103489047Y-66849333D01*
X103584285Y-66896952D01*
X103631904Y-66944571D01*
X103679523Y-67039809D01*
X103679523Y-67277904D01*
X103631904Y-67373142D01*
X103584285Y-67420761D01*
X103489047Y-67468380D01*
X103203333Y-67468380D01*
X103108095Y-67420761D01*
X103060476Y-67373142D01*
%TO.C,Q2*%
X102774761Y-62483619D02*
X102679523Y-62436000D01*
X102584285Y-62340761D01*
X102441428Y-62197904D01*
X102346190Y-62150285D01*
X102250952Y-62150285D01*
X102298571Y-62388380D02*
X102203333Y-62340761D01*
X102108095Y-62245523D01*
X102060476Y-62055047D01*
X102060476Y-61721714D01*
X102108095Y-61531238D01*
X102203333Y-61436000D01*
X102298571Y-61388380D01*
X102489047Y-61388380D01*
X102584285Y-61436000D01*
X102679523Y-61531238D01*
X102727142Y-61721714D01*
X102727142Y-62055047D01*
X102679523Y-62245523D01*
X102584285Y-62340761D01*
X102489047Y-62388380D01*
X102298571Y-62388380D01*
X103108095Y-61483619D02*
X103155714Y-61436000D01*
X103250952Y-61388380D01*
X103489047Y-61388380D01*
X103584285Y-61436000D01*
X103631904Y-61483619D01*
X103679523Y-61578857D01*
X103679523Y-61674095D01*
X103631904Y-61816952D01*
X103060476Y-62388380D01*
X103679523Y-62388380D01*
%TO.C,Q1*%
X102774761Y-57911619D02*
X102679523Y-57864000D01*
X102584285Y-57768761D01*
X102441428Y-57625904D01*
X102346190Y-57578285D01*
X102250952Y-57578285D01*
X102298571Y-57816380D02*
X102203333Y-57768761D01*
X102108095Y-57673523D01*
X102060476Y-57483047D01*
X102060476Y-57149714D01*
X102108095Y-56959238D01*
X102203333Y-56864000D01*
X102298571Y-56816380D01*
X102489047Y-56816380D01*
X102584285Y-56864000D01*
X102679523Y-56959238D01*
X102727142Y-57149714D01*
X102727142Y-57483047D01*
X102679523Y-57673523D01*
X102584285Y-57768761D01*
X102489047Y-57816380D01*
X102298571Y-57816380D01*
X103679523Y-57816380D02*
X103108095Y-57816380D01*
X103393809Y-57816380D02*
X103393809Y-56816380D01*
X103298571Y-56959238D01*
X103203333Y-57054476D01*
X103108095Y-57102095D01*
%TO.C,J3*%
X94066380Y-72469333D02*
X94780666Y-72469333D01*
X94923523Y-72516952D01*
X95018761Y-72612190D01*
X95066380Y-72755047D01*
X95066380Y-72850285D01*
X94066380Y-72088380D02*
X94066380Y-71469333D01*
X94447333Y-71802666D01*
X94447333Y-71659809D01*
X94494952Y-71564571D01*
X94542571Y-71516952D01*
X94637809Y-71469333D01*
X94875904Y-71469333D01*
X94971142Y-71516952D01*
X95018761Y-71564571D01*
X95066380Y-71659809D01*
X95066380Y-71945523D01*
X95018761Y-72040761D01*
X94971142Y-72088380D01*
%TO.C,J2*%
X106514380Y-72469333D02*
X107228666Y-72469333D01*
X107371523Y-72516952D01*
X107466761Y-72612190D01*
X107514380Y-72755047D01*
X107514380Y-72850285D01*
X106609619Y-72040761D02*
X106562000Y-71993142D01*
X106514380Y-71897904D01*
X106514380Y-71659809D01*
X106562000Y-71564571D01*
X106609619Y-71516952D01*
X106704857Y-71469333D01*
X106800095Y-71469333D01*
X106942952Y-71516952D01*
X107514380Y-72088380D01*
X107514380Y-71469333D01*
%TO.C,J1*%
X100250666Y-50886380D02*
X100250666Y-51600666D01*
X100203047Y-51743523D01*
X100107809Y-51838761D01*
X99964952Y-51886380D01*
X99869714Y-51886380D01*
X101250666Y-51886380D02*
X100679238Y-51886380D01*
X100964952Y-51886380D02*
X100964952Y-50886380D01*
X100869714Y-51029238D01*
X100774476Y-51124476D01*
X100679238Y-51172095D01*
%TD*%
M02*
