%TF.GenerationSoftware,KiCad,Pcbnew,6.0.0-unknown-30ec895~86~ubuntu16.04.1*%
%TF.CreationDate,2021-05-25T09:51:37+03:00*%
%TF.ProjectId,npn-to-pnp,6e706e2d-746f-42d7-906e-702e6b696361,rev?*%
%TF.SameCoordinates,Original*%
%TF.FileFunction,Paste,Top*%
%TF.FilePolarity,Positive*%
%FSLAX46Y46*%
G04 Gerber Fmt 4.6, Leading zero omitted, Abs format (unit mm)*
G04 Created by KiCad (PCBNEW 6.0.0-unknown-30ec895~86~ubuntu16.04.1) date 2021-05-25 09:51:37*
%MOMM*%
%LPD*%
G04 APERTURE LIST*
%ADD10R,1.300000X1.500000*%
%ADD11R,0.900000X0.800000*%
G04 APERTURE END LIST*
D10*
%TO.C,R16*%
X99822000Y-91346000D03*
X99822000Y-88646000D03*
%TD*%
%TO.C,R15*%
X99822000Y-86266000D03*
X99822000Y-83566000D03*
%TD*%
%TO.C,R14*%
X99822000Y-81280000D03*
X99822000Y-78580000D03*
%TD*%
%TO.C,R13*%
X99822000Y-75852000D03*
X99822000Y-73152000D03*
%TD*%
%TO.C,R12*%
X105918000Y-91346000D03*
X105918000Y-88646000D03*
%TD*%
%TO.C,R11*%
X105918000Y-86520000D03*
X105918000Y-83820000D03*
%TD*%
%TO.C,R10*%
X105918000Y-81186000D03*
X105918000Y-78486000D03*
%TD*%
%TO.C,R9*%
X105918000Y-76106000D03*
X105918000Y-73406000D03*
%TD*%
%TO.C,R8*%
X99822000Y-70772000D03*
X99822000Y-68072000D03*
%TD*%
%TO.C,R7*%
X99822000Y-65946000D03*
X99822000Y-63246000D03*
%TD*%
%TO.C,R6*%
X99822000Y-60866000D03*
X99822000Y-58166000D03*
%TD*%
%TO.C,R5*%
X99822000Y-56040000D03*
X99822000Y-53340000D03*
%TD*%
%TO.C,R4*%
X105918000Y-71026000D03*
X105918000Y-68326000D03*
%TD*%
%TO.C,R3*%
X105918000Y-65946000D03*
X105918000Y-63246000D03*
%TD*%
%TO.C,R2*%
X105918000Y-61120000D03*
X105918000Y-58420000D03*
%TD*%
%TO.C,R1*%
X105918000Y-56040000D03*
X105918000Y-53340000D03*
%TD*%
D11*
%TO.C,Q16*%
X97536000Y-90800000D03*
X97536000Y-88900000D03*
X95536000Y-89850000D03*
%TD*%
%TO.C,Q15*%
X97536000Y-85786000D03*
X97536000Y-83886000D03*
X95536000Y-84836000D03*
%TD*%
%TO.C,Q14*%
X97520000Y-80706000D03*
X97520000Y-78806000D03*
X95520000Y-79756000D03*
%TD*%
%TO.C,Q13*%
X97520000Y-75626000D03*
X97520000Y-73726000D03*
X95520000Y-74676000D03*
%TD*%
%TO.C,Q12*%
X103870000Y-90866000D03*
X103870000Y-88966000D03*
X101870000Y-89916000D03*
%TD*%
%TO.C,Q11*%
X103870000Y-85786000D03*
X103870000Y-83886000D03*
X101870000Y-84836000D03*
%TD*%
%TO.C,Q10*%
X103870000Y-80706000D03*
X103870000Y-78806000D03*
X101870000Y-79756000D03*
%TD*%
%TO.C,Q9*%
X103870000Y-75626000D03*
X103870000Y-73726000D03*
X101870000Y-74676000D03*
%TD*%
%TO.C,Q8*%
X97536000Y-70546000D03*
X97536000Y-68646000D03*
X95536000Y-69596000D03*
%TD*%
%TO.C,Q7*%
X97520000Y-65466000D03*
X97520000Y-63566000D03*
X95520000Y-64516000D03*
%TD*%
%TO.C,Q6*%
X97536000Y-60452000D03*
X97536000Y-58552000D03*
X95536000Y-59502000D03*
%TD*%
%TO.C,Q5*%
X97520000Y-55306000D03*
X97520000Y-53406000D03*
X95520000Y-54356000D03*
%TD*%
%TO.C,Q4*%
X103870000Y-70546000D03*
X103870000Y-68646000D03*
X101870000Y-69596000D03*
%TD*%
%TO.C,Q3*%
X103870000Y-65466000D03*
X103870000Y-63566000D03*
X101870000Y-64516000D03*
%TD*%
%TO.C,Q2*%
X103870000Y-60386000D03*
X103870000Y-58486000D03*
X101870000Y-59436000D03*
%TD*%
%TO.C,Q1*%
X103870000Y-55814000D03*
X103870000Y-53914000D03*
X101870000Y-54864000D03*
%TD*%
M02*
